<?xml version="1.0" encoding="UTF-8"?><svg xmlns="http://www.w3.org/2000/svg" viewBox="0 0 400 239" width="400" height="239"><path fill="#0A2342" d="M8.09,238.57C8.83,237.84 37.77,232.01 55.50,229.02C82.99,224.39 103.25,222.08 145.00,218.81C166.96,217.09 237.61,217.09 258.00,218.80C302.25,222.53 321.19,224.84 350.33,230.09C369.95,233.62 390.16,237.82 390.85,238.52C391.12,238.78 305.01,239.00 199.50,239.00C93.99,239.00 7.86,238.81 8.09,238.57ZM0.00,118.50L0.00,0.00L86.25,0.05L172.50,0.09L174.60,4.55C175.76,7.00 176.34,9.00 175.89,9.00C173.27,9.00 163.09,13.78 157.27,17.74C148.56,23.68 137.00,33.13 137.00,34.33C137.00,34.87 139.16,34.97 142.16,34.57L147.32,33.89L144.41,37.69C126.21,61.48 118.58,83.77 122.41,102.00C124.17,110.42 129.86,122.50 132.06,122.50C132.86,122.50 133.31,121.83 133.08,121.00C129.68,108.72 129.11,105.38 129.06,97.50C128.89,72.05 149.66,35.04 171.35,22.12C178.54,17.84 189.06,14.00 193.60,14.00C196.55,14.00 198.12,15.00 203.64,20.38C208.12,24.75 211.20,26.93 213.40,27.29C217.27,27.92 222.35,30.10 226.74,33.03C229.66,34.97 230.05,35.02 230.62,33.54C231.59,31.01 226.39,22.02 221.21,17.27C213.68,10.36 202.86,5.87 188.32,3.61C183.27,2.82 178.32,1.70 177.32,1.12C176.03,0.37 208.21,0.05 287.75,0.03L400.00,0.00L400.00,118.50C400.00,202.85 399.69,237.00 398.92,237.00C398.32,237.00 394.83,235.68 391.15,234.07C381.85,229.99 355.76,221.35 342.00,217.79C335.68,216.16 328.48,214.30 326.00,213.66L321.50,212.50L321.27,190.50C321.14,178.40 321.03,168.21 321.02,167.86C320.98,166.62 315.74,165.92 311.39,166.57L307.00,167.23L307.00,184.99C307.00,205.56 306.55,209.00 303.88,209.00C301.78,209.00 301.76,208.46 302.00,151.39C302.06,136.48 301.83,123.20 301.49,121.89C301.09,120.39 298.42,117.92 294.26,115.25C288.03,111.24 287.26,111.00 280.33,111.00L273.00,111.00L273.00,127.37C273.00,142.17 272.81,143.97 271.02,146.25C269.16,148.61 269.01,150.59 268.77,176.14L268.50,203.50L265.75,203.82L263.00,204.13L263.00,182.27C263.00,159.47 262.74,158.00 258.66,158.00C256.95,158.00 256.80,157.49 257.34,153.53C257.91,149.36 257.68,148.75 253.83,144.28C251.57,141.65 249.18,139.37 248.52,139.21C247.86,139.05 245.53,143.02 243.26,148.21C240.32,154.90 238.46,157.86 236.59,158.80L234.00,160.11L234.00,180.69L234.00,201.27L229.36,200.64C226.81,200.29 223.41,200.00 221.82,200.00C220.07,200.00 218.98,199.50 219.07,198.75C219.42,196.12 218.95,195.00 217.50,195.00C216.21,195.00 216.00,191.95 216.00,173.56C216.00,160.34 215.62,151.88 215.00,151.50C214.45,151.16 214.00,148.26 214.00,145.05C214.00,138.90 213.31,138.00 208.62,138.00C204.27,138.00 204.00,139.32 204.00,160.20C204.00,179.33 203.93,180.00 202.00,180.00C200.13,180.00 200.00,180.67 200.00,190.00L200.00,200.00L195.50,200.00L191.00,200.00L191.00,185.00C191.00,175.67 190.62,170.00 190.00,170.00C189.37,170.00 189.00,162.68 189.00,150.05C189.00,133.50 188.75,129.96 187.52,129.27C186.33,128.60 186.00,125.09 185.77,110.60L185.50,92.75L176.17,88.75C169.05,85.70 166.57,85.03 165.67,85.93C164.81,86.79 164.43,102.19 164.22,144.05C164.04,179.92 163.58,201.00 162.97,201.00C162.37,201.00 162.00,192.95 162.00,180.20C162.00,165.36 161.66,159.06 160.80,158.20C159.47,156.87 149.21,156.58 147.27,157.81C146.40,158.37 145.97,163.71 145.77,176.54L145.50,194.50L140.75,194.80L136.00,195.11L136.00,164.64L136.00,134.18L129.75,129.92C126.31,127.58 121.45,123.94 118.94,121.83C116.43,119.73 114.06,118.00 113.69,118.00C113.31,118.00 113.00,137.80 113.00,162.00C113.00,190.67 112.65,206.00 112.00,206.00C111.38,206.00 111.00,200.57 111.00,191.70C111.00,181.91 110.62,177.02 109.80,176.20C109.12,175.52 105.87,175.00 102.30,175.00L96.00,175.00L96.00,172.04C96.00,170.13 95.31,168.70 94.07,168.04C91.80,166.82 85.05,166.68 83.27,167.81C82.37,168.38 81.97,174.49 81.77,190.45C81.51,211.42 81.42,212.32 79.50,212.64C78.40,212.82 74.12,213.84 70.00,214.89C65.88,215.95 58.90,217.74 54.50,218.86C43.63,221.64 24.67,227.94 12.23,232.90C6.58,235.16 1.52,237.00 0.98,237.00C0.35,237.00 0.00,195.21 0.00,118.50ZM232.88,133.69C240.92,117.36 243.67,99.84 239.50,91.50C238.26,89.02 236.69,87.38 235.39,87.20C233.39,86.91 233.24,87.43 232.76,96.70C232.26,106.22 230.41,116.03 229.13,115.97C228.78,115.95 226.96,113.26 225.09,109.98C219.41,100.07 211.56,92.92 192.79,80.57C189.10,78.15 184.26,74.70 182.04,72.91C179.82,71.13 177.71,69.95 177.36,70.30C176.57,71.10 187.27,84.29 190.35,86.31C195.50,89.68 213.75,108.98 216.99,114.47C221.50,122.12 224.94,132.29 224.97,138.08C225.02,146.62 227.08,145.48 232.88,133.69ZM244.64,79.41C246.05,78.36 248.32,75.51 249.69,73.07C251.05,70.64 253.29,67.17 254.67,65.37C256.04,63.57 257.01,61.31 256.83,60.35C256.64,59.39 253.94,56.85 250.83,54.72C247.71,52.58 242.37,47.93 238.96,44.38C235.54,40.82 232.53,38.14 232.26,38.41C230.88,39.78 233.66,44.63 239.23,50.58C245.09,56.85 245.32,57.29 243.53,58.60C241.68,59.95 241.69,60.04 243.74,62.24C248.63,67.48 247.01,74.85 240.51,77.00C235.45,78.67 221.41,75.75 218.30,72.38C216.08,69.98 214.00,69.25 214.00,70.88C214.00,75.09 215.43,77.85 217.86,78.32C219.31,78.61 222.97,79.52 226.00,80.36C233.11,82.33 241.30,81.91 244.64,79.41ZM232.00,49.15C232.00,48.68 230.72,46.53 229.15,44.36C226.84,41.18 225.73,40.46 223.40,40.63C221.80,40.74 219.94,40.87 219.25,40.92C217.19,41.05 217.84,42.99 220.25,43.92C221.49,44.40 223.59,45.96 224.92,47.39C227.20,49.84 232.00,51.03 232.00,49.15ZM196.56,32.08C198.38,30.48 200.67,28.72 201.64,28.18C204.35,26.67 201.59,24.00 197.31,24.00C190.73,24.00 188.16,27.70 191.04,33.07C192.38,35.58 192.63,35.53 196.56,32.08Z"/></svg>