<?xml version="1.0" encoding="UTF-8"?><svg xmlns="http://www.w3.org/2000/svg" viewBox="0 0 785 792" width="785" height="792"><path fill="#0A2342" d="M0.00,630.50L0.00,469.00L5.86,469.00C9.09,469.00 15.27,468.13 19.61,467.06C23.95,466.00 31.10,464.37 35.50,463.44C43.25,461.79 45.28,461.39 57.00,459.12C60.02,458.54 65.65,457.34 69.50,456.47C78.49,454.43 90.87,452.10 98.50,451.02C101.80,450.56 110.12,449.24 117.00,448.10C123.88,446.95 134.00,445.31 139.50,444.44C145.00,443.57 151.13,442.44 153.12,441.93C155.10,441.42 158.80,441.00 161.32,441.00C163.84,441.00 168.06,440.55 170.70,440.00C173.34,439.45 180.45,438.58 186.50,438.05C200.83,436.82 225.08,434.50 243.68,432.59C258.93,431.03 289.88,428.96 328.50,426.94C353.48,425.63 452.95,426.22 480.50,427.84C507.45,429.42 541.36,431.94 549.26,432.94C553.24,433.44 562.35,434.36 569.50,434.99C576.65,435.61 584.94,436.54 587.92,437.06C590.90,437.58 595.17,438.00 597.42,437.99C602.01,437.99 623.85,440.61 631.50,442.09C634.25,442.62 645.05,444.40 655.50,446.03C689.59,451.37 691.21,451.66 717.00,456.92C722.23,457.99 727.85,459.14 729.50,459.49C731.15,459.83 734.75,460.53 737.50,461.04C740.25,461.55 744.30,462.37 746.50,462.86C748.70,463.36 754.09,464.53 758.48,465.47C762.87,466.41 767.23,467.59 768.16,468.09C770.81,469.50 783.74,469.23 784.34,467.75C784.62,467.06 784.88,539.74 784.92,629.25L785.00,792.00L510.25,791.96C272.18,791.92 236.03,791.72 239.50,790.50C245.79,788.27 249.00,784.01 249.00,777.88C249.00,770.50 245.32,767.09 234.09,764.07C229.46,762.83 224.85,761.30 223.84,760.67C221.61,759.28 221.41,754.73 223.50,753.00C226.06,750.88 233.50,750.61 239.10,752.44C244.83,754.31 245.97,753.83 246.29,749.41C246.48,746.75 246.06,746.35 241.50,744.79C224.81,739.10 208.69,748.45 212.95,761.35C214.53,766.14 218.07,768.48 227.60,771.06C237.81,773.81 240.21,775.33 239.81,778.79C239.62,780.41 238.52,781.97 237.00,782.78C233.35,784.71 222.95,783.76 218.41,781.08C216.39,779.89 214.64,779.05 214.50,779.21C214.37,779.37 213.52,780.95 212.62,782.72C211.02,785.87 211.04,785.98 213.46,787.57C214.83,788.46 217.87,789.80 220.22,790.53C223.99,791.71 220.80,791.86 193.50,791.84C171.47,791.83 163.49,791.53 165.93,790.83C182.76,786.00 188.82,763.64 176.76,750.83C165.29,738.65 142.51,741.64 134.75,756.35C131.87,761.81 131.69,772.85 134.39,778.00C137.83,784.54 143.12,788.97 149.99,791.07C151.37,791.48 118.19,791.87 76.25,791.91L0.00,792.00L0.00,630.50ZM67.00,781.00L67.00,771.00L78.50,771.00L90.00,771.00L90.00,781.00L90.00,791.00L95.00,791.00L100.00,791.00L100.00,767.50L100.00,744.00L95.00,744.00L90.00,744.00L90.00,753.50L90.00,763.00L78.50,763.00L67.00,763.00L67.00,753.50L67.00,744.00L62.00,744.00L57.00,744.00L57.00,767.50L57.00,791.00L62.00,791.00L67.00,791.00L67.00,781.00ZM290.00,784.50L290.00,778.00L296.82,778.00C306.28,778.00 313.10,775.79 316.86,771.51C323.95,763.43 321.43,750.81 311.78,746.14C307.96,744.29 305.61,744.00 294.18,744.00L281.00,744.00L281.00,767.50L281.00,791.00L285.50,791.00L290.00,791.00L290.00,784.50ZM363.00,767.50L363.00,744.00L358.00,744.00L353.00,744.00L353.00,767.50L353.00,791.00L358.00,791.00L363.00,791.00L363.00,767.50ZM417.00,771.50L417.00,752.00L424.50,752.00L432.00,752.00L432.00,748.00L432.00,744.00L412.00,744.00L392.00,744.00L392.00,748.00L392.00,752.00L399.50,752.00L407.00,752.00L407.00,771.50L407.00,791.00L412.00,791.00L417.00,791.00L417.00,771.50ZM467.19,786.00L469.27,781.00L481.01,781.00L492.75,781.00L494.90,786.00L497.06,791.00L501.98,791.00L506.90,791.00L502.09,780.25C499.44,774.34 494.68,763.76 491.50,756.75L485.71,744.00L481.04,744.00L476.36,744.00L466.18,766.75C460.58,779.26 456.00,789.84 456.00,790.25C456.00,790.66 458.05,791.00 460.56,791.00C465.08,791.00 465.13,790.96 467.19,786.00ZM570.00,787.00L570.00,783.00L557.50,783.00L545.00,783.00L545.00,763.50L545.00,744.00L540.50,744.00L536.00,744.00L536.00,767.50L536.00,791.00L553.00,791.00L570.00,791.00L570.00,787.00ZM609.00,767.50L609.00,744.00L604.00,744.00L599.00,744.00L599.00,767.50L599.00,791.00L604.00,791.00L609.00,791.00L609.00,767.50ZM663.00,771.50L663.00,752.00L671.00,752.00L679.00,752.00L679.00,748.00L679.00,744.00L658.50,744.00L638.00,744.00L638.00,748.00L638.00,752.00L646.00,752.00L654.00,752.00L654.00,771.50L654.00,791.00L658.50,791.00L663.00,791.00L663.00,771.50ZM729.01,782.75L729.01,774.50L738.00,759.50L746.99,744.50L743.39,744.18C741.41,744.01 739.24,744.08 738.56,744.34C737.88,744.60 734.50,749.58 731.06,755.41C727.61,761.23 724.66,766.00 724.50,766.00C724.34,766.00 721.39,761.23 717.94,755.41C714.50,749.58 711.12,744.60 710.45,744.34C709.78,744.08 707.41,744.01 705.19,744.19L701.15,744.50L710.05,759.00L718.96,773.50L718.98,782.25L719.00,791.00L724.00,791.00L729.00,791.00L729.01,782.75ZM152.62,783.01C146.34,781.03 142.00,774.70 142.00,767.50C142.00,759.65 146.27,754.04 153.75,752.05C168.14,748.23 178.98,763.68 171.04,776.70C167.77,782.07 159.08,785.04 152.62,783.01ZM473.17,772.19C477.69,761.14 480.50,755.00 481.04,755.00C481.58,755.00 485.73,764.04 488.73,771.75C489.09,772.69 487.17,773.00 481.02,773.00C476.52,773.00 472.98,772.63 473.17,772.19ZM290.00,761.03L290.00,751.79L298.40,752.15C308.68,752.58 311.00,754.11 311.00,760.48C311.00,767.06 308.00,769.22 298.01,769.79L290.00,770.26L290.00,761.03ZM747.23,618.52L747.50,541.04L750.00,538.54C752.44,536.11 757.28,534.60 771.25,531.95C776.37,530.98 777.00,530.59 777.00,528.43L777.00,526.00L742.50,526.00L708.00,526.00L708.00,528.45C708.00,530.51 708.61,531.02 711.75,531.57C731.68,535.06 735.96,536.84 737.76,542.36C738.72,545.30 738.96,558.58 738.76,598.45L738.50,650.68L682.52,588.34L626.54,526.00L604.27,526.00L582.00,526.00L582.00,528.36C582.00,530.54 582.73,530.86 592.38,532.79C605.52,535.42 609.74,537.17 611.01,540.52C612.42,544.24 612.35,672.70 610.93,676.77C609.53,680.79 605.54,682.61 592.75,685.05C587.12,686.12 582.39,687.00 582.25,687.00C582.11,687.00 582.00,688.12 582.00,689.50L582.00,692.00L616.50,692.00L651.00,692.00L651.00,689.50C651.00,688.12 650.89,687.00 650.75,687.00C648.16,687.00 629.12,682.67 626.74,681.55C620.23,678.46 620.53,681.43 620.22,616.17C620.06,583.10 620.32,557.08 620.80,557.38C621.28,557.67 649.07,588.98 682.58,626.96C719.22,668.49 744.18,696.00 745.23,696.00C746.86,696.00 746.98,691.33 747.23,618.52ZM485.00,692.50C493.67,690.21 508.49,683.19 515.13,678.22C537.52,661.46 549.32,637.14 549.20,608.00C549.14,592.74 546.99,583.46 540.53,570.50C529.67,548.72 509.81,532.82 485.29,526.30C476.81,524.05 473.49,523.70 460.50,523.70C442.66,523.71 434.60,525.47 420.32,532.50C402.69,541.17 389.79,554.13 381.57,571.39C376.16,582.75 373.95,590.91 373.14,602.47C371.43,626.75 376.95,645.76 390.77,663.11C394.00,667.18 398.81,672.27 401.46,674.43C413.08,683.91 429.37,691.50 443.50,694.00C451.51,695.41 477.51,694.48 485.00,692.50ZM160.41,688.75C160.69,686.96 161.18,681.83 161.52,677.34C161.85,672.85 163.14,664.14 164.37,657.98C166.18,649.02 166.37,646.69 165.31,646.29C162.75,645.30 161.16,646.96 156.86,655.12C151.76,664.79 143.39,674.18 135.85,678.71C126.36,684.41 121.22,685.13 92.61,684.80C68.58,684.52 66.98,684.38 64.32,682.41C62.77,681.25 60.96,678.78 60.31,676.91C58.71,672.36 58.50,547.35 60.07,541.67C61.34,537.10 63.57,535.97 76.00,533.57C80.67,532.67 85.51,531.71 86.75,531.44C88.35,531.10 89.00,530.24 89.00,528.48L89.00,526.00L46.50,526.00L4.00,526.00L4.00,528.45C4.00,530.51 4.61,531.01 7.75,531.56C23.27,534.24 29.59,536.08 31.75,538.54L34.00,541.11L34.00,608.92C34.00,675.47 33.96,676.78 31.98,679.30C29.95,681.88 27.66,682.57 9.75,686.03C4.63,687.02 4.00,687.41 4.00,689.57L4.00,692.00L81.95,692.00L159.91,692.00L160.41,688.75ZM334.90,680.17C335.55,673.67 336.96,664.10 338.03,658.92C340.47,647.08 340.47,647.00 337.70,647.00C335.83,647.00 334.36,648.82 329.95,656.61C323.24,668.46 315.69,675.81 305.02,680.91L297.50,684.50L276.50,684.79C257.90,685.05 255.10,684.88 252.01,683.29C246.08,680.24 246.03,679.90 246.01,642.16L246.00,607.81L269.25,608.16C290.09,608.46 292.92,608.71 296.50,610.50C301.73,613.12 304.70,618.62 306.88,629.77C308.50,638.01 308.75,638.52 311.30,638.82L314.00,639.13L314.00,604.50L314.00,569.87L311.29,570.18C308.73,570.48 308.48,570.99 306.81,579.33C304.60,590.34 301.77,595.55 296.51,598.30C292.86,600.20 290.41,600.43 269.25,600.81L246.00,601.23L246.00,567.12L246.00,533.00L270.32,533.00C297.54,533.00 301.81,533.69 309.21,539.32C314.62,543.43 322.16,554.30 325.74,563.16C328.21,569.25 328.79,569.98 331.25,569.99C334.47,570.00 334.42,570.38 332.49,560.34C330.33,549.10 329.63,537.32 330.75,531.25L331.73,526.00L260.86,526.00L190.00,526.00L190.00,528.45C190.00,530.51 190.61,531.01 193.75,531.56C209.27,534.24 215.59,536.08 217.75,538.54L220.00,541.11L220.00,608.92C220.00,675.47 219.96,676.78 217.98,679.30C215.95,681.88 213.66,682.57 195.75,686.03C190.63,687.02 190.00,687.41 190.00,689.57L190.00,692.00L261.86,692.00L333.72,692.00L334.90,680.17ZM450.00,686.49C439.05,684.02 431.41,679.61 422.46,670.60C415.98,664.07 413.52,660.66 409.74,653.00C402.84,639.02 400.61,628.80 400.60,611.00C400.58,583.60 407.79,563.25 422.98,547.90C440.26,530.43 463.10,526.47 485.00,537.14C495.16,542.09 506.58,554.17 512.38,566.12C519.28,580.33 521.42,590.33 521.46,608.50C521.49,629.27 518.10,643.19 509.35,658.12C496.51,680.02 472.41,691.54 450.00,686.49ZM0.00,232.91L0.00,0.00L169.97,-0.00C319.55,-0.00 339.87,0.18 339.37,1.48C339.06,2.29 340.65,6.16 342.90,10.07C345.16,13.98 347.00,17.36 347.00,17.59C347.00,17.81 345.87,18.00 344.49,18.00C343.10,18.00 341.19,18.41 340.24,18.90C339.28,19.40 335.82,20.63 332.55,21.65C329.28,22.67 324.17,24.96 321.18,26.75C318.20,28.54 315.53,30.00 315.25,30.00C314.85,30.00 307.45,35.28 299.50,41.23C293.62,45.64 271.42,63.66 271.17,64.24C270.98,64.66 270.20,65.00 269.42,65.00C268.64,65.00 268.00,65.90 268.00,67.00C268.00,69.46 271.39,69.60 280.99,67.54C284.56,66.77 287.65,66.32 287.87,66.53C288.29,66.96 282.83,75.09 277.46,82.00C267.40,94.96 249.85,126.48 246.00,138.50C245.30,140.70 244.37,143.40 243.93,144.50C242.15,148.99 239.93,160.13 238.80,170.26C236.73,188.78 239.81,207.48 247.57,223.56C253.05,234.93 257.38,241.00 260.01,241.00C262.55,241.00 262.58,238.59 260.10,232.88C259.05,230.47 257.67,225.80 257.03,222.50C256.39,219.20 255.43,214.84 254.91,212.81C253.58,207.66 253.51,172.11 254.82,167.90C255.41,166.03 256.87,160.90 258.08,156.50C259.28,152.10 261.04,146.70 261.98,144.50C262.92,142.30 264.28,138.70 264.99,136.50C267.10,130.00 279.52,105.59 284.18,98.79C286.55,95.33 288.97,91.59 289.56,90.49C295.42,79.52 316.85,56.62 329.50,47.81C338.55,41.51 359.34,31.00 362.75,31.00C363.99,31.00 365.00,30.65 365.00,30.23C365.00,29.35 376.50,27.00 380.82,27.00C382.51,27.00 386.16,28.66 389.74,31.06C395.64,35.02 407.89,47.01 411.11,51.98C412.53,54.18 413.00,54.32 415.27,53.29C417.41,52.31 418.95,52.52 424.58,54.57C430.61,56.75 443.70,63.38 445.00,64.91C446.30,66.44 450.07,67.91 451.38,67.41C454.99,66.02 453.82,61.96 445.52,47.05C441.14,39.20 427.17,26.63 417.50,21.85C415.85,21.03 413.60,19.87 412.50,19.27C409.51,17.63 395.07,12.30 390.50,11.15C385.70,9.94 378.74,8.60 366.00,6.42C357.03,4.89 344.00,1.33 344.00,0.42C344.00,0.19 443.22,0.00 564.50,0.00L785.00,0.00L785.00,233.02L785.00,466.04L782.30,465.36C780.81,464.99 774.18,462.29 767.55,459.36C760.92,456.43 754.93,454.03 754.24,454.02C753.54,454.01 752.19,453.57 751.24,453.06C748.81,451.73 729.44,444.63 724.00,443.07C721.52,442.35 718.60,441.42 717.50,440.99C716.40,440.55 712.80,439.44 709.50,438.52C706.20,437.59 701.10,435.91 698.17,434.77C695.24,433.63 691.19,432.36 689.17,431.95C684.88,431.07 670.88,427.57 663.00,425.41C656.71,423.69 650.84,422.09 646.50,420.92C644.85,420.48 640.49,419.37 636.81,418.46L630.12,416.81L630.23,373.46C630.31,341.08 630.03,329.74 629.14,328.66C627.17,326.29 614.46,324.14 612.71,325.89C612.10,326.50 609.91,327.00 607.84,327.00C605.24,327.00 603.77,327.56 603.11,328.79C602.57,329.81 602.02,347.71 601.83,370.54L601.50,410.50L597.20,410.37C594.84,410.30 592.69,410.02 592.43,409.76C592.16,409.50 591.96,371.47 591.97,325.25C591.98,279.04 591.71,239.80 591.36,238.05C590.87,235.62 589.43,234.04 585.11,231.22C582.03,229.20 578.35,226.96 576.94,226.24C575.54,225.53 572.21,223.14 569.55,220.94L564.72,216.95L550.61,217.22L536.50,217.50L536.00,250.20L535.50,282.91L531.50,287.00L527.50,291.10L527.25,338.30C527.11,364.26 527.00,388.76 527.00,392.75L527.00,400.00L521.97,400.00C518.81,400.00 516.75,399.52 516.45,398.72C516.18,398.02 515.86,378.49 515.73,355.31C515.60,332.13 515.15,312.82 514.73,312.40C514.31,311.98 512.06,311.37 509.73,311.06L505.50,310.49L505.50,301.49C505.50,291.51 505.37,291.18 499.00,284.33C496.52,281.67 493.23,277.81 491.69,275.75C490.16,273.69 488.23,272.00 487.42,272.00C486.54,272.00 484.33,275.47 481.97,280.56C479.79,285.27 478.00,289.27 478.00,289.46C478.00,289.65 476.20,293.61 474.00,298.26C471.80,302.91 470.00,307.29 470.00,308.00C470.00,309.75 466.95,311.93 464.45,311.97C460.04,312.04 460.00,312.40 460.00,354.29L460.00,394.19L445.75,393.47C437.91,393.08 431.18,392.57 430.78,392.34C430.39,392.11 430.32,390.64 430.64,389.07C431.26,385.97 428.37,382.00 425.50,382.00C424.68,382.00 423.98,381.44 423.94,380.75C423.91,380.06 423.91,361.19 423.94,338.82L424.00,298.14L421.39,296.09C418.82,294.07 418.79,293.89 419.29,284.17C419.58,278.74 419.42,273.67 418.94,272.90C417.67,270.85 403.29,270.93 401.98,273.00C401.42,273.88 401.02,290.94 401.02,314.22L401.00,353.94L397.25,353.72L393.50,353.50L393.00,373.00L392.50,392.50L383.75,392.79L375.00,393.08L375.00,364.07C375.00,336.15 374.93,335.03 373.01,334.01C371.09,332.98 371.01,331.70 370.76,293.73L370.50,254.53L367.87,253.26L365.23,252.00L365.08,217.25C364.96,191.54 364.60,182.20 363.71,181.36C363.04,180.73 359.01,179.03 354.74,177.58C350.48,176.13 343.14,173.15 338.43,170.97C333.73,168.79 329.02,167.00 327.97,167.00C324.80,167.00 322.87,172.32 322.38,182.37C322.14,187.39 321.84,237.03 321.72,292.67C321.60,348.31 321.18,394.15 320.79,394.54C320.40,394.93 319.39,394.98 318.54,394.65C317.19,394.13 317.00,389.06 317.00,352.73C317.00,321.92 316.69,311.09 315.80,310.20C313.88,308.28 291.05,308.58 288.22,310.56L286.00,312.11L286.00,347.06L286.00,382.00L276.00,382.00L266.00,382.00L266.00,322.22L266.00,262.43L262.75,260.55C259.35,258.59 243.95,247.73 240.50,244.86C239.40,243.95 235.50,240.68 231.82,237.60C228.15,234.52 224.22,232.00 223.08,232.00L221.01,232.00L220.76,318.24C220.51,399.45 220.40,404.49 218.75,404.81C217.12,405.12 217.00,403.23 216.98,376.32C216.98,359.97 216.56,346.85 216.02,346.00C215.29,344.83 212.12,344.39 201.79,344.00L188.50,343.50L188.00,337.50C187.72,334.20 187.16,330.98 186.75,330.35C185.16,327.89 176.44,326.75 168.96,328.01C162.89,329.03 161.74,329.56 160.94,331.67C160.41,333.05 160.00,352.22 160.00,375.57C160.00,415.75 159.94,417.00 158.08,417.00C156.32,417.00 148.61,418.69 140.00,420.98C138.07,421.49 133.12,422.67 129.00,423.61C124.88,424.55 120.83,425.66 120.00,426.07C119.17,426.49 115.80,427.37 112.50,428.04C109.20,428.70 104.25,429.91 101.50,430.72C92.88,433.26 70.59,440.23 68.50,441.03C67.40,441.46 60.65,443.69 53.50,446.01C46.35,448.32 40.07,450.61 39.55,451.11C39.03,451.60 37.78,452.00 36.79,452.00C35.79,452.00 34.19,452.44 33.24,452.97C32.28,453.51 28.58,455.13 25.00,456.58C21.42,458.02 16.48,460.13 14.00,461.25C11.52,462.38 7.36,463.86 4.75,464.56L0.00,465.82L0.00,232.91ZM450.31,274.75C462.44,254.97 468.22,239.71 472.49,216.14C475.39,200.10 474.29,188.57 468.77,177.27C466.14,171.88 463.77,169.75 460.83,170.17C458.55,170.49 458.49,170.81 457.88,184.50C457.53,192.20 456.80,201.43 456.25,205.00C455.07,212.65 451.18,227.11 449.94,228.41C449.45,228.93 447.95,226.71 446.41,223.16C444.94,219.77 443.35,217.00 442.87,217.00C442.39,217.00 442.00,216.54 442.00,215.99C442.00,214.60 434.31,203.38 430.02,198.50C424.89,192.67 416.10,184.34 411.50,180.95C409.30,179.33 404.57,175.83 401.00,173.17C397.43,170.51 392.43,167.18 389.90,165.77C382.00,161.37 364.81,149.40 357.31,143.06C350.49,137.32 347.00,135.64 347.00,138.11C347.00,141.30 366.78,163.62 379.25,174.50C391.83,185.47 411.21,204.66 416.73,211.60C431.76,230.51 442.00,255.38 442.00,272.98C442.00,284.38 444.12,284.83 450.31,274.75ZM476.93,157.83C483.08,154.90 486.10,151.59 489.81,143.75C491.52,140.12 494.22,135.66 495.82,133.83C504.82,123.47 506.31,116.25 500.21,112.51C487.07,104.47 470.07,90.00 462.93,80.79C458.36,74.90 455.74,73.87 455.18,77.75C454.66,81.44 461.89,91.89 471.75,101.68C476.84,106.73 481.00,111.58 481.00,112.46C481.00,113.44 479.81,114.29 477.91,114.67C473.23,115.60 473.33,117.53 478.32,122.38C481.94,125.90 482.98,127.69 483.53,131.38C484.49,137.76 483.50,141.94 480.02,146.16C477.66,149.02 475.69,150.13 470.43,151.56L463.81,153.35L448.66,150.00C432.74,146.49 428.96,144.76 426.43,139.86C425.31,137.70 424.28,136.96 422.69,137.19C420.64,137.48 420.52,137.95 420.79,144.44C420.95,148.26 421.56,151.97 422.16,152.69C422.76,153.41 424.85,154.00 426.80,154.00C428.76,154.00 431.74,154.43 433.43,154.96C450.70,160.38 469.03,161.59 476.93,157.83ZM453.96,97.55C454.92,96.39 454.44,94.82 451.50,89.56C446.29,80.25 444.67,79.21 435.91,79.56C431.97,79.72 428.27,80.33 427.70,80.90C426.31,82.29 429.61,86.00 432.23,86.00C433.28,86.00 436.72,88.46 439.87,91.46C447.32,98.56 451.59,100.41 453.96,97.55ZM382.41,66.14C383.85,63.87 387.54,60.58 391.35,58.17C398.42,53.71 399.21,52.92 398.18,51.39C396.16,48.41 392.26,47.00 386.00,47.00C373.48,47.00 368.82,53.80 374.13,64.29C377.63,71.19 379.03,71.50 382.41,66.14Z"/></svg>